<svg width="151" height="57" viewBox="0 0 151 57" fill="none" xmlns="http://www.w3.org/2000/svg">
<path d="M0 0.25H151V56.25H0V0.25Z" fill="black"/>
<path d="M50.68 15.1997V22.2497H53.05C55.15 22.2497 56.38 20.9497 56.38 18.7197C56.38 16.5097 55.14 15.1997 53.05 15.1997H50.68ZM51.56 15.9997H53C54.6 15.9997 55.49 16.9697 55.49 18.7297C55.49 20.4797 54.6 21.4597 53 21.4597H51.57V15.9997H51.56ZM57.88 22.2497H58.73V17.1697H57.88V22.2497ZM58.31 16.2697C58.61 16.2697 58.84 16.0297 58.84 15.7397C58.84 15.5992 58.7842 15.4644 58.6848 15.365C58.5854 15.2656 58.4506 15.2097 58.31 15.2097C58.1694 15.2097 58.0346 15.2656 57.9352 15.365C57.8358 15.4644 57.78 15.5992 57.78 15.7397C57.78 16.0297 58.01 16.2697 58.31 16.2697ZM60.29 18.5697C60.29 19.3097 60.76 19.7497 61.71 19.9797L62.51 20.1797C63.1 20.3197 63.3 20.5297 63.3 20.8897C63.3 21.3497 62.88 21.6397 62.19 21.6397C61.49 21.6397 61.11 21.3697 61 20.7897H60.16C60.26 21.7397 61 22.3397 62.19 22.3397C63.32 22.3397 64.15 21.7097 64.15 20.8297C64.15 20.0997 63.78 19.6997 62.75 19.4497L61.95 19.2497C61.39 19.1197 61.13 18.8797 61.13 18.5297C61.13 18.0797 61.53 17.7797 62.16 17.7797C62.78 17.7797 63.17 18.0997 63.24 18.6397H64.04C64.01 17.7397 63.27 17.0797 62.16 17.0797C61.06 17.0797 60.29 17.6997 60.29 18.5797V18.5697ZM68 17.0797C67.27 17.0797 66.68 17.4597 66.36 18.0297H66.34V17.1697H65.54V23.9397H66.39V21.4197H66.41C66.71 21.9797 67.3 22.3397 68.02 22.3397C69.3 22.3397 70.18 21.2997 70.18 19.7097C70.18 18.1097 69.3 17.0797 68 17.0797ZM67.84 21.5897C66.97 21.5897 66.38 20.8397 66.38 19.7097C66.38 18.5797 66.97 17.8297 67.84 17.8297C68.74 17.8297 69.31 18.5597 69.31 19.7097C69.31 20.8597 68.74 21.5897 67.84 21.5897ZM73.64 22.3397C75.04 22.3397 75.99 21.3297 75.99 19.7097C75.99 18.0897 75.04 17.0797 73.64 17.0797C72.24 17.0797 71.29 18.0897 71.29 19.7097C71.29 21.3297 72.23 22.3397 73.64 22.3397ZM73.64 21.5897C72.74 21.5897 72.15 20.9097 72.15 19.7097C72.15 18.5097 72.75 17.8297 73.65 17.8297C74.54 17.8297 75.12 18.5097 75.12 19.7097C75.12 20.9097 74.54 21.5897 73.64 21.5897ZM77.34 22.2497H78.2V19.2597C78.2 18.3997 78.72 17.8397 79.52 17.8397C80.3 17.8397 80.69 18.2897 80.69 19.1097V22.2497H81.54V18.9497C81.54 17.7997 80.89 17.0797 79.78 17.0797C78.99 17.0797 78.45 17.4397 78.17 17.9797H78.15V17.1797H77.35V22.2497H77.34ZM83.17 22.2497H84.02V17.1697H83.17V22.2497ZM83.93 16.4397L85.07 14.9697H84.14L83.27 16.4397H83.93ZM89.83 17.1697H88.94L87.54 21.3497H87.52L86.12 17.1697H85.22L87.1 22.2497H87.97L89.84 17.1697H89.83ZM92.89 17.8197C93.69 17.8197 94.22 18.4197 94.24 19.2797H91.48C91.53 18.4297 92.09 17.8197 92.88 17.8197H92.89ZM94.22 20.7897C94.08 21.2697 93.6 21.5997 92.96 21.5997C92.05 21.5997 91.48 20.9597 91.48 19.9897V19.9397H95.12V19.6197C95.12 18.0797 94.27 17.0797 92.9 17.0797C91.5 17.0797 90.6 18.1497 90.6 19.7297C90.6 21.3297 91.49 22.3297 92.94 22.3297C94.04 22.3297 94.91 21.6797 95.05 20.7897H94.22ZM96.52 22.2497H97.37V15.1997H96.52V22.2497ZM101.57 22.2497H102.42V19.2597C102.42 18.3997 102.94 17.8397 103.74 17.8397C104.52 17.8397 104.91 18.2897 104.91 19.1097V22.2497H105.76V18.9497C105.76 17.7997 105.11 17.0797 104 17.0797C103.22 17.0797 102.67 17.4397 102.39 17.9797H102.37V17.1797H101.57V22.2497ZM109.02 21.6197C108.41 21.6197 108 21.2997 108 20.8197C108 20.3397 108.4 20.0297 109.08 19.9897L110.43 19.9097V20.3197C110.43 21.0497 109.82 21.6197 109.02 21.6197ZM108.82 22.3397C109.52 22.3397 110.16 21.9597 110.46 21.3797H110.48V22.2497H111.28V18.7397C111.28 17.7297 110.53 17.0797 109.34 17.0797C108.14 17.0797 107.39 17.7597 107.33 18.6397H108.15C108.25 18.1397 108.67 17.8397 109.32 17.8397C110.02 17.8397 110.43 18.1997 110.43 18.8197V19.2497L108.98 19.3297C107.81 19.3997 107.14 19.9497 107.14 20.8097C107.14 21.7297 107.82 22.3397 108.83 22.3397H108.82Z" fill="#F5F5F5"/>
<path fill-rule="evenodd" clip-rule="evenodd" d="M35.62 14.4697C35.6747 15.1906 35.5862 15.9151 35.3597 16.6016C35.1331 17.2881 34.773 17.923 34.3 18.4697C33.8319 19.0285 33.2454 19.4763 32.583 19.7806C31.9207 20.085 31.1989 20.2384 30.47 20.2297C30.4237 19.5286 30.5193 18.8253 30.7513 18.162C30.9833 17.4988 31.3468 16.8891 31.82 16.3697C32.8097 15.2903 34.1627 14.6138 35.62 14.4697ZM40.33 22.9997C40.17 23.0897 37.51 24.6297 37.54 27.7597C37.5541 28.849 37.8902 29.9097 38.5058 30.8083C39.1215 31.7069 39.9894 32.4033 41 32.8097C40.98 32.9097 40.47 34.6097 39.2 36.3597C38.14 37.8997 37.03 39.3997 35.26 39.4297C34.43 39.4497 33.86 39.2097 33.26 38.9697C32.5357 38.6275 31.7439 38.4516 30.9427 38.4551C30.1416 38.4586 29.3514 38.6412 28.63 38.9897C28.07 39.2097 27.53 39.4397 26.77 39.4697C25.09 39.5297 23.8 37.8297 22.7 36.2997C20.5 33.1997 18.8 27.5497 21.09 23.6997C21.6342 22.7702 22.4065 21.9949 23.334 21.4471C24.2614 20.8994 25.3133 20.5974 26.39 20.5697C27.3139 20.6104 28.2208 20.8313 29.06 21.2197C29.67 21.4597 30.22 21.6697 30.66 21.6697C31.06 21.6697 31.59 21.4697 32.21 21.2297C33.19 20.8497 34.38 20.3897 35.61 20.5197C36.44 20.5397 38.81 20.8397 40.33 22.9997ZM94.59 38.4897C95.38 37.7897 95.77 36.8897 95.77 35.7897C95.77 34.8897 95.5 34.1397 94.97 33.5397C94.2554 32.8256 93.3864 32.2851 92.43 31.9597C91.735 31.73 91.0803 31.3926 90.49 30.9597C90.08 30.6197 89.87 30.1997 89.87 29.6797C89.87 29.2197 90.05 28.8297 90.41 28.5097C90.83 28.1497 91.41 27.9697 92.17 27.9697C93.12 27.9697 93.97 28.1697 94.73 28.5697L95.26 26.8697C94.313 26.4271 93.2748 26.2146 92.23 26.2497C90.87 26.2497 89.78 26.5897 88.96 27.2697C88.5657 27.5833 88.2495 27.9839 88.0361 28.4402C87.8227 28.8966 87.7179 29.3961 87.73 29.8997C87.73 31.5297 88.9 32.7797 91.23 33.6197C92.1 33.9297 92.71 34.2697 93.08 34.6197C93.45 34.9897 93.63 35.4297 93.63 35.9597C93.63 36.5597 93.41 37.0297 92.96 37.3797C92.51 37.7297 91.89 37.9097 91.08 37.9097C89.9904 37.9207 88.9184 37.6337 87.98 37.0797L87.49 38.8197C88.36 39.3597 89.52 39.6197 90.95 39.6197C92.51 39.6197 93.72 39.2497 94.59 38.4897ZM58.99 39.4297H61.27L56.95 26.4497H54.3L50 39.4497H52.22L53.41 35.6297H57.74L59 39.4297H58.99ZM56.24 30.6297L57.37 34.0197H53.78L54.89 30.6197C55.19 29.5397 55.39 28.7197 55.53 28.1797H55.57C55.9 29.4597 56.12 30.2797 56.24 30.6197V30.6297ZM71 38.3997C71.923 37.3641 72.3977 36.0048 72.32 34.6197C72.32 33.1997 71.94 32.0497 71.18 31.1697C70.8342 30.7542 70.3994 30.4217 69.9079 30.1967C69.4163 29.9717 68.8805 29.8599 68.34 29.8697C66.89 29.8697 65.81 30.4197 65.09 31.5397H65.05L64.93 30.0497H63.05C63.1 31.1097 63.13 32.1397 63.13 33.1397V43.2497H65.27V38.3097H65.31C65.87 39.2097 66.78 39.6397 68.04 39.6397C69.22 39.6397 70.2 39.2397 71 38.4097V38.3997ZM69.5 32.4497C69.92 33.0497 70.13 33.7997 70.13 34.7097C70.1729 35.5581 69.9377 36.3973 69.46 37.0997C69.01 37.6997 68.38 37.9997 67.58 37.9997C66.89 37.9997 66.34 37.7697 65.91 37.2997C65.4792 36.832 65.2462 36.2155 65.26 35.5797V34.0097C65.26 33.8497 65.29 33.6397 65.36 33.3797C65.4752 32.8592 65.7633 32.3929 66.1773 32.057C66.5913 31.7211 67.1069 31.5352 67.64 31.5297C68.42 31.5297 69.04 31.8297 69.5 32.4497ZM83.38 34.6297C83.38 36.2297 82.94 37.4897 82.06 38.4097C81.6819 38.81 81.2239 39.1263 80.7157 39.3382C80.2075 39.5501 79.6605 39.6528 79.11 39.6397C77.84 39.6397 76.93 39.1997 76.37 38.3097H76.33V43.2497H74.2V33.1497C74.2 32.1497 74.18 31.1197 74.13 30.0597H76L76.12 31.5497H76.16C76.5006 31.0056 76.9808 30.5628 77.5506 30.2673C78.1204 29.9718 78.7591 29.8345 79.4 29.8697C80.54 29.8697 81.49 30.3097 82.25 31.1797C83.0379 32.1517 83.4402 33.3799 83.38 34.6297ZM81.21 34.7097C81.21 33.7997 80.99 33.0497 80.57 32.4497C80.3596 32.1552 80.0798 31.9171 79.7553 31.7567C79.4308 31.5962 79.0718 31.5182 78.71 31.5297C78.1769 31.5352 77.6613 31.7211 77.2473 32.057C76.8333 32.3929 76.5452 32.8592 76.43 33.3797C76.37 33.6397 76.33 33.8497 76.33 34.0097V35.5797C76.33 36.2597 76.55 36.8297 76.98 37.2997C77.4 37.7697 77.96 37.9997 78.65 37.9997C79.45 37.9997 80.08 37.6997 80.53 37.0997C80.98 36.4997 81.21 35.6997 81.21 34.7097ZM102.84 31.6297H100.48V36.1797C100.48 37.3297 100.89 37.9097 101.73 37.9097C102.11 37.9097 102.43 37.8797 102.68 37.8097L102.74 39.3897C102.31 39.5497 101.76 39.6197 101.07 39.6197C100.706 39.6406 100.341 39.5846 100 39.4554C99.6591 39.3262 99.349 39.1266 99.09 38.8697C98.62 38.3697 98.38 37.5297 98.38 36.3497V31.6197H96.98V30.0597H98.38V28.3497L100.48 27.7297V30.0597H102.84V31.6297ZM112.21 38.2197C113.071 37.2427 113.523 35.9711 113.47 34.6697C113.47 33.2697 113.07 32.1297 112.24 31.2397C111.38 30.3297 110.24 29.8697 108.84 29.8697C107.37 29.8697 106.2 30.3397 105.34 31.2697C104.456 32.2398 103.989 33.5184 104.04 34.8297C103.997 36.0996 104.449 37.3366 105.3 38.2797C105.732 38.7368 106.258 39.0949 106.841 39.3297C107.425 39.5645 108.052 39.6702 108.68 39.6397C110.14 39.6397 111.32 39.1697 112.21 38.2197ZM110.68 32.5197C111.06 33.1297 111.25 33.8697 111.25 34.7397C111.25 35.5997 111.05 36.3497 110.66 36.9797C110.475 37.3273 110.198 37.6175 109.86 37.8185C109.521 38.0196 109.134 38.1237 108.74 38.1197C107.91 38.1197 107.26 37.7497 106.8 36.9997C106.4 36.3296 106.199 35.5597 106.22 34.7797C106.22 33.8797 106.42 33.1297 106.8 32.5197C106.992 32.1704 107.276 31.881 107.622 31.6833C107.968 31.4856 108.362 31.3875 108.76 31.3997C109.59 31.3997 110.23 31.7697 110.68 32.5197ZM120.43 31.8897C120.205 31.8528 119.978 31.8361 119.75 31.8397C119 31.8397 118.42 32.1097 118.01 32.6697C117.65 33.1597 117.47 33.7697 117.47 34.5197V39.4297H115.33L115.35 33.0097C115.35 31.9397 115.33 30.9497 115.27 30.0697H117.14L117.22 31.8597H117.27C117.5 31.2397 117.86 30.7497 118.34 30.3697C118.82 30.0397 119.34 29.8697 119.89 29.8697C120.09 29.8697 120.27 29.8897 120.42 29.9097V31.8897H120.43ZM129.91 35.2497C129.97 34.9897 129.99 34.6797 129.99 34.3097C129.99 33.1397 129.71 32.1497 129.14 31.3597C128.43 30.3597 127.38 29.8597 125.99 29.8597C124.58 29.8597 123.46 30.3597 122.63 31.3597C121.816 32.3482 121.389 33.5996 121.43 34.8797C121.43 36.3197 121.86 37.4697 122.71 38.3197C123.179 38.7623 123.732 39.1049 124.337 39.3267C124.943 39.5485 125.586 39.6448 126.23 39.6097C127.47 39.6097 128.55 39.4097 129.46 39.0297L129.12 37.5797C128.34 37.8797 127.48 38.0297 126.52 38.0297C125.67 38.0297 124.97 37.8097 124.42 37.3697C123.83 36.8797 123.52 36.1697 123.49 35.2497H129.91ZM127.54 32.1697C127.82 32.6197 127.96 33.1497 127.95 33.7697H123.5C123.56 33.1397 123.77 32.5997 124.13 32.1497C124.56 31.5797 125.13 31.2997 125.83 31.2997C126.6 31.2997 127.16 31.5897 127.53 32.1697H127.54Z" fill="#F5F5F5"/>
</svg>
