<svg width="151" height="56" viewBox="0 0 151 56" fill="none" xmlns="http://www.w3.org/2000/svg">
<path d="M0 0H151V56H0V0Z" fill="black"/>
<path d="M75.65 29.3797C73.26 29.3797 71.31 31.1897 71.31 33.6797C71.3072 34.2476 71.4181 34.8104 71.6359 35.3348C71.8538 35.8593 72.1744 36.3349 72.5787 36.7336C72.9831 37.1324 73.4631 37.4463 73.9905 37.6569C74.518 37.8674 75.0822 37.9704 75.65 37.9597C78.05 37.9597 80 36.1397 80 33.6697C80.0055 33.0997 79.8963 32.5344 79.6789 32.0075C79.4615 31.4806 79.1403 31.0028 78.7345 30.6025C78.3286 30.2023 77.8464 29.8878 77.3165 29.6777C76.7866 29.4676 76.2199 29.3663 75.65 29.3797ZM75.65 36.2797C74.34 36.2797 73.21 35.2097 73.21 33.6797C73.21 32.1297 74.34 31.0697 75.65 31.0697C76.96 31.0697 78.09 32.1297 78.09 33.6697C78.09 35.2097 76.95 36.2697 75.65 36.2697V36.2797ZM66.17 29.3797C63.77 29.3797 61.82 31.1897 61.82 33.6797C61.8172 34.2485 61.9283 34.812 62.1468 35.3372C62.3653 35.8623 62.6868 36.3384 63.0922 36.7373C63.4976 37.1362 63.9789 37.4499 64.5075 37.6598C65.0361 37.8698 65.6014 37.9717 66.17 37.9597C68.56 37.9597 70.51 36.1397 70.51 33.6697C70.5155 33.1006 70.4066 32.5362 70.1898 32.0099C69.973 31.4837 69.6527 31.0063 69.2479 30.6062C68.8432 30.2061 68.3621 29.8913 67.8334 29.6807C67.3047 29.47 66.739 29.3676 66.17 29.3797ZM66.17 36.2797C64.85 36.2797 63.72 35.2097 63.72 33.6797C63.72 32.1297 64.85 31.0697 66.17 31.0697C67.47 31.0697 68.61 32.1297 68.61 33.6697C68.61 35.2097 67.48 36.2697 66.17 36.2697V36.2797ZM54.89 30.6997V32.5097H59.29C59.225 33.3671 58.8727 34.1774 58.29 34.8097C57.8468 35.2549 57.3153 35.6023 56.7297 35.8296C56.1442 36.057 55.5175 36.1592 54.89 36.1297C54.2546 36.1324 53.625 36.0089 53.0377 35.7663C52.4504 35.5238 51.9171 35.1671 51.4687 34.7168C51.0203 34.2666 50.6658 33.7318 50.4257 33.1435C50.1856 32.5552 50.0647 31.9251 50.07 31.2897C50.0647 30.6535 50.1859 30.0225 50.4266 29.4336C50.6674 28.8446 51.0228 28.3094 51.4722 27.859C51.9217 27.4087 52.4561 27.0521 53.0446 26.8102C53.6331 26.5683 54.2638 26.4457 54.9 26.4497C56.35 26.4497 57.42 27.0097 58.2 27.7497L59.5 26.4697C58.8915 25.8733 58.1707 25.4036 57.3794 25.0877C56.5881 24.7719 55.7419 24.6162 54.89 24.6297C53.1046 24.6215 51.3878 25.3169 50.1114 26.5653C48.8349 27.8137 48.1015 29.5146 48.07 31.2997C48.1041 33.084 48.8383 34.7834 50.1142 36.0312C51.3901 37.2791 53.1054 37.9753 54.89 37.9697C56.89 37.9697 58.39 37.3297 59.58 36.0997C60.6459 34.9458 61.2168 33.4199 61.17 31.8497C61.17 31.4197 61.14 31.0297 61.07 30.7097H54.89V30.6997ZM101 32.0997C100.64 31.1497 99.54 29.3697 97.3 29.3697C95.06 29.3697 93.21 31.1097 93.21 33.6697C93.21 36.0697 95.04 37.9497 97.51 37.9497C98.2203 37.955 98.9209 37.7842 99.5491 37.4527C100.177 37.1211 100.714 36.6391 101.11 36.0497L99.63 35.0797C99.4092 35.444 99.098 35.7451 98.7266 35.9536C98.3551 36.1621 97.936 36.271 97.51 36.2697C97.0701 36.2881 96.6348 36.174 96.2604 35.9422C95.886 35.7104 95.5898 35.3717 95.41 34.9697L101.2 32.5897L101 32.1097V32.0997ZM95.1 33.5397C95.0811 33.2273 95.1246 32.9142 95.2279 32.6187C95.3311 32.3232 95.4921 32.0512 95.7015 31.8186C95.9109 31.5859 96.1645 31.3973 96.4475 31.2635C96.7305 31.1298 97.0373 31.0537 97.35 31.0397C98.11 31.0397 98.75 31.4097 98.96 31.9397L95.09 33.5397H95.1ZM90.39 37.6997H92.29V25.0897H90.39V37.7097V37.6997ZM87.28 30.3297H87.2C86.9101 30.0168 86.5567 29.7693 86.1636 29.6038C85.7704 29.4382 85.3465 29.3584 84.92 29.3697C83.8032 29.4062 82.7447 29.8769 81.9696 30.6818C81.1946 31.4868 80.7642 32.5623 80.77 33.6797C80.77 36.0797 82.76 37.9597 84.92 37.9597C85.95 37.9597 86.78 37.5097 87.2 36.9797H87.27V37.5997C87.27 39.2397 86.38 40.1197 84.96 40.1197C84.4873 40.1093 84.0282 39.9594 83.6404 39.689C83.2526 39.4186 82.9533 39.0396 82.78 38.5997L81.12 39.2797C81.4345 40.0372 81.968 40.6836 82.6521 41.1361C83.3362 41.5887 84.1398 41.8267 84.96 41.8197C87.18 41.8197 89.06 40.5197 89.06 37.3497V29.6397H87.26V30.3397H87.28V30.3297ZM85.08 36.2697C83.78 36.2697 82.68 35.1697 82.68 33.6797C82.68 32.1697 83.78 31.0697 85.08 31.0697C86.38 31.0697 87.4 32.1697 87.4 33.6797C87.4 35.1797 86.39 36.2697 85.09 36.2697H85.08ZM109.91 25.0797H105.36V37.6997H107.26V32.9197H109.92C112.03 32.9197 114.1 31.3997 114.1 28.9997C114.1 26.5997 112.01 25.0797 109.91 25.0797ZM109.95 31.1597H107.25V26.8297H109.95C110.241 26.8231 110.53 26.8741 110.8 26.9798C111.071 27.0855 111.318 27.2438 111.527 27.4456C111.737 27.6474 111.904 27.8886 112.019 28.1554C112.135 28.4221 112.196 28.7091 112.2 28.9997C112.2 29.9897 111.4 31.1697 109.97 31.1697L109.95 31.1597ZM121.7 29.3597C120.33 29.3597 118.9 29.9597 118.31 31.2797L120 31.9797C120.36 31.2797 121.03 31.0497 121.73 31.0497C122.71 31.0497 123.71 31.6297 123.73 32.6697V32.7997C123.115 32.4811 122.432 32.3164 121.74 32.3197C119.92 32.3197 118.08 33.3097 118.08 35.1597C118.08 36.8397 119.56 37.9297 121.23 37.9297C122.5 37.9297 123.22 37.3697 123.65 36.6997H123.71V37.6797H125.55V32.8397C125.55 30.5997 123.87 29.3497 121.7 29.3497V29.3597ZM121.47 36.2597C120.84 36.2597 119.98 35.9597 119.98 35.1997C119.98 34.2297 121.06 33.8497 122 33.8497C122.83 33.8497 123.23 34.0397 123.72 34.2797C123.648 34.8269 123.38 35.3295 122.967 35.6952C122.553 36.0608 122.022 36.2648 121.47 36.2697V36.2597ZM132.24 29.6297L130.06 35.0997H130L127.74 29.6297H125.69L129.08 37.2697L127.15 41.5197H129.13L134.35 29.6197H132.23L132.24 29.6297ZM115.14 37.6997H117.04V25.0897H115.14V37.7097V37.6997Z" fill="#F5F5F5"/>
<path d="M16.92 15.0397C16.62 15.3597 16.45 15.8397 16.45 16.4597V38.7797C16.45 39.3997 16.63 39.8797 16.92 40.1897L16.99 40.2597L29.6 27.7597V27.4797L17 14.9697L16.92 15.0397Z" fill="url(#paint0_linear_1_222)"/>
<path d="M33.8 31.9398L29.6 27.7698V27.4698L33.8 23.2998L33.9 23.3498L38.88 26.1498C40.3 26.9498 40.3 28.2598 38.88 29.0698L33.9 31.8698L33.8 31.9398Z" fill="url(#paint1_linear_1_222)"/>
<path d="M33.9 31.8801L29.6 27.6201L16.92 40.1901C17.39 40.6901 18.16 40.7501 19.04 40.2501L33.9 31.8801Z" fill="url(#paint2_linear_1_222)"/>
<path d="M33.9 23.3596L19.03 14.9796C18.15 14.4796 17.38 14.5496 16.91 15.0396L29.61 27.6196L33.9 23.3596Z" fill="url(#paint3_linear_1_222)"/>
<path opacity="0.2" d="M33.8 31.7895L19.04 40.0995C18.21 40.5595 17.47 40.5295 17 40.1095L16.93 40.1795L17 40.2495C17.48 40.6795 18.21 40.7095 19.04 40.2495L33.91 31.8695L33.81 31.7695L33.8 31.7895Z" fill="black"/>
<path opacity="0.12" d="M16.92 40.0501C16.62 39.7401 16.45 39.2501 16.45 38.6401V38.7901C16.45 39.4101 16.63 39.8901 16.92 40.2001L16.99 40.1301L16.92 40.0501ZM38.88 28.9301L33.8 31.7901L33.89 31.8801L38.87 29.0801C39.57 28.6701 39.93 28.1401 39.93 27.6201C39.88 28.0901 39.53 28.5701 38.88 28.9201V28.9301Z" fill="black"/>
<path opacity="0.25" d="M19.03 15.1204L38.88 26.3104C39.52 26.6704 39.88 27.1304 39.94 27.6104C39.94 27.0904 39.59 26.5604 38.88 26.1604L19.03 14.9804C17.6 14.1804 16.44 14.8504 16.44 16.4704V16.6204C16.44 14.9904 17.61 14.3204 19.03 15.1204Z" fill="white"/>
<path d="M48.37 20.5502V14.5002H50.25C51.18 14.5002 51.94 14.7802 52.5 15.3402C53.05 15.9002 53.34 16.6302 53.34 17.5302C53.34 18.4302 53.05 19.1502 52.5 19.7202C52.1977 20.0023 51.842 20.221 51.4539 20.3636C51.0657 20.5061 50.653 20.5696 50.24 20.5502H48.37ZM49.16 19.8102H50.24C50.94 19.8102 51.5 19.6102 51.91 19.2102C52.33 18.8002 52.54 18.2402 52.54 17.5102C52.54 16.8002 52.34 16.2502 51.91 15.8402C51.6852 15.6346 51.4219 15.4757 51.1352 15.3727C50.8485 15.2697 50.5442 15.2246 50.24 15.2402H49.16V19.8102ZM54.44 20.5502V14.5002H55.22V20.5502H54.44ZM58.34 20.6902C57.89 20.6902 57.46 20.5402 57.04 20.2502C56.6163 19.9684 56.3159 19.5357 56.2 19.0402L56.91 18.7602C56.99 19.0902 57.17 19.3702 57.43 19.6002C57.7 19.8302 57.99 19.9402 58.33 19.9402C58.66 19.9402 58.96 19.8402 59.2 19.6802C59.3181 19.5995 59.414 19.4903 59.4786 19.3627C59.5433 19.2351 59.5747 19.0932 59.57 18.9502C59.57 18.6202 59.45 18.3502 59.2 18.1702C58.8471 17.9385 58.4586 17.7662 58.05 17.6602C57.5954 17.5359 57.1749 17.3103 56.82 17.0002C56.55 16.7302 56.4 16.4002 56.4 15.9702C56.4 15.5402 56.58 15.1702 56.92 14.8402C57.27 14.5202 57.72 14.3602 58.28 14.3602C58.7308 14.3411 59.1749 14.475 59.54 14.7402C59.86 14.9902 60.08 15.2802 60.17 15.5802L59.46 15.8802C59.41 15.6802 59.28 15.5002 59.08 15.3402C58.88 15.1802 58.62 15.0902 58.3 15.0902C58 15.0902 57.74 15.1802 57.52 15.3502C57.4229 15.4216 57.3441 15.515 57.2902 15.6228C57.2363 15.7306 57.2088 15.8497 57.21 15.9702C57.21 16.1902 57.31 16.3902 57.51 16.5502C57.7 16.7002 57.99 16.8402 58.37 16.9602C58.67 17.0602 58.92 17.1602 59.12 17.2402C59.32 17.3402 59.52 17.4602 59.73 17.6102C59.93 17.7602 60.1 17.9402 60.2 18.1602C60.3113 18.4075 60.3672 18.6762 60.3638 18.9474C60.3603 19.2186 60.2976 19.4858 60.18 19.7302C60.06 19.9602 59.9 20.1402 59.69 20.2702C59.295 20.5468 58.8221 20.6904 58.34 20.6802V20.6902ZM62.29 20.5502H61.5V14.5002H63.58C64.1 14.5002 64.55 14.6702 64.92 15.0102C65.3 15.3602 65.49 15.7802 65.49 16.3102C65.49 16.8202 65.3 17.2502 64.92 17.6002C64.55 17.9402 64.1 18.1102 63.58 18.1102H62.28V20.5502H62.29ZM62.29 17.3502H63.6C63.93 17.3502 64.2 17.2502 64.4 17.0202C64.6 16.8002 64.69 16.5602 64.69 16.3002C64.69 16.0302 64.59 15.8002 64.39 15.5702C64.19 15.3502 63.93 15.2402 63.6 15.2402H62.29V17.3602V17.3502ZM71.48 19.7702C71.1911 20.0708 70.8426 20.3078 70.4569 20.4662C70.0713 20.6247 69.6568 20.7009 69.24 20.6902C68.8245 20.6971 68.4119 20.6198 68.0271 20.4631C67.6423 20.3063 67.2931 20.0733 67.0007 19.7781C66.7083 19.4829 66.4786 19.1315 66.3255 18.7452C66.1725 18.3589 66.0991 17.9456 66.11 17.5302C66.11 16.6502 66.4 15.8902 67 15.2902C67.2889 14.9896 67.6374 14.7525 68.023 14.5941C68.4087 14.4357 68.8232 14.3595 69.24 14.3702C69.6564 14.3634 70.0699 14.4406 70.4558 14.5971C70.8417 14.7536 71.1921 14.9863 71.4861 15.2812C71.7801 15.5762 72.0116 15.9273 72.167 16.3137C72.3223 16.7001 72.3981 17.1138 72.39 17.5302C72.39 18.4102 72.08 19.1602 71.48 19.7702ZM67.58 19.2702C68.03 19.7202 68.58 19.9402 69.24 19.9402C69.89 19.9402 70.45 19.7202 70.9 19.2602C71.35 18.8102 71.58 18.2302 71.58 17.5302C71.5922 17.2159 71.5405 16.9024 71.4283 16.6085C71.316 16.3147 71.1454 16.0467 70.9267 15.8205C70.7081 15.5944 70.4459 15.4149 70.156 15.2928C69.8661 15.1707 69.5545 15.1086 69.24 15.1102C68.59 15.1102 68.03 15.3402 67.58 15.7902C67.3547 16.019 67.1782 16.2913 67.0613 16.5904C66.9444 16.8895 66.8895 17.2092 66.9 17.5302C66.9 18.2302 67.13 18.8102 67.58 19.2602V19.2702ZM73.48 20.5502V14.5002H74.44L77.41 19.2102H77.44L77.41 18.0402V14.5002H78.2V20.5502H77.38L74.28 15.6202H74.25L74.28 16.7902V20.5502H73.48ZM79.6 20.5502V14.5002H80.37V20.5502H79.59H79.6ZM80.32 14.0202H79.64L80.09 12.9502H80.94L80.32 14.0202ZM83.29 20.5502L81.14 14.5002H82L83.67 19.4102H83.7L85.45 14.5002H86.32L84.1 20.5502H83.29ZM90.78 15.2502H88V17.1602H90.5V17.8902H88V19.8102H90.78V20.5502H87.2V14.5002H90.77V15.2502H90.78ZM92 20.5502V14.5002H92.78V19.8002H95.43V20.5502H92ZM98.46 20.5502V14.5002H99.42L102.39 19.2102H102.42L102.39 18.0402V14.5002H103.17V20.5502H102.36L99.26 15.6202H99.23L99.26 16.7902V20.5502H98.46ZM109.57 19.7702C109.281 20.0708 108.933 20.3078 108.547 20.4662C108.161 20.6247 107.747 20.7009 107.33 20.6902C106.914 20.697 106.501 20.6198 106.116 20.4632C105.73 20.3065 105.381 20.0737 105.087 19.7786C104.794 19.4835 104.563 19.1323 104.409 18.7459C104.255 18.3596 104.181 17.9461 104.19 17.5302C104.19 16.6502 104.49 15.8902 105.09 15.2902C105.379 14.9896 105.727 14.7525 106.113 14.5941C106.499 14.4357 106.913 14.3595 107.33 14.3702C107.746 14.3648 108.158 14.4429 108.543 14.6001C108.927 14.7572 109.277 14.9901 109.57 15.2849C109.862 15.5797 110.093 15.9303 110.248 16.3161C110.403 16.7018 110.478 17.1147 110.47 17.5302C110.477 17.9448 110.402 18.3566 110.247 18.7414C110.092 19.1262 109.862 19.476 109.57 19.7702ZM105.67 19.2702C106.12 19.7202 106.67 19.9402 107.33 19.9402C107.98 19.9402 108.53 19.7202 108.99 19.2602C109.44 18.8102 109.67 18.2302 109.67 17.5302C109.682 17.2159 109.631 16.9024 109.518 16.6085C109.406 16.3147 109.235 16.0467 109.017 15.8205C108.798 15.5944 108.536 15.4149 108.246 15.2928C107.956 15.1707 107.645 15.1086 107.33 15.1102C106.68 15.1102 106.12 15.3402 105.67 15.7902C105.445 16.019 105.268 16.2913 105.151 16.5904C105.034 16.8895 104.98 17.2092 104.99 17.5302C104.99 18.2302 105.22 18.8102 105.67 19.2602V19.2702Z" fill="#F5F5F5"/>
<defs>
<linearGradient id="paint0_linear_1_222" x1="28.48" y1="16.2197" x2="11.55" y2="33.3097" gradientUnits="userSpaceOnUse">
<stop stop-color="#00A0FF"/>
<stop offset="0.01" stop-color="#00A1FF"/>
<stop offset="0.26" stop-color="#00BEFF"/>
<stop offset="0.51" stop-color="#00D2FF"/>
<stop offset="0.76" stop-color="#00DFFF"/>
<stop offset="1" stop-color="#00E3FF"/>
</linearGradient>
<linearGradient id="paint1_linear_1_222" x1="40.73" y1="27.6198" x2="16.1" y2="27.6198" gradientUnits="userSpaceOnUse">
<stop stop-color="#FFE000"/>
<stop offset="0.41" stop-color="#FFBD00"/>
<stop offset="0.78" stop-color="#FFA500"/>
<stop offset="1" stop-color="#FF9C00"/>
</linearGradient>
<linearGradient id="paint2_linear_1_222" x1="31.56" y1="29.9301" x2="8.60002" y2="53.1001" gradientUnits="userSpaceOnUse">
<stop stop-color="#FF3A44"/>
<stop offset="1" stop-color="#C31162"/>
</linearGradient>
<linearGradient id="paint3_linear_1_222" x1="13.72" y1="7.60956" x2="23.98" y2="17.9596" gradientUnits="userSpaceOnUse">
<stop stop-color="#32A071"/>
<stop offset="0.07" stop-color="#2DA771"/>
<stop offset="0.48" stop-color="#15CF74"/>
<stop offset="0.8" stop-color="#06E775"/>
<stop offset="1" stop-color="#00F076"/>
</linearGradient>
</defs>
</svg>
