<svg width="20" height="21" fill="none" xmlns="http://www.w3.org/2000/svg"><g clip-path="url(#a)"><path fill-rule="evenodd" clip-rule="evenodd" d="M12.338 1.46h3.117a4.07 4.07 0 0 1 4.069 4.07v10.909a4.07 4.07 0 0 1-4.07 4.07h-3.116v-1.906h3.117a2.164 2.164 0 0 0 2.164-2.164V5.529c0-1.195-.969-2.164-2.164-2.164h-3.117V1.461ZM9.33 6.026l4.93 4.93-4.9 5.348-1.405-1.287 2.823-3.08H.476v-1.904h10.169l-2.66-2.66L9.33 6.025Z" fill="#820AD1"/></g><defs><clipPath id="a"><path fill="#fff" transform="translate(0 .984)" d="M0 0h20v20H0z"/></clipPath></defs></svg>