<svg width="20" height="20" fill="none" xmlns="http://www.w3.org/2000/svg"><path fill-rule="evenodd" clip-rule="evenodd" d="M.891 2.682C.476 3.497.476 4.563.476 6.697v6.857c0 2.133 0 3.2.415 4.015a3.81 3.81 0 0 0 1.665 1.665c.815.415 1.882.415 4.015.415h6.858c2.133 0 3.2 0 4.015-.415a3.81 3.81 0 0 0 1.665-1.665c.415-.815.415-1.881.415-4.015V6.697c0-2.134 0-3.2-.415-4.015a3.81 3.81 0 0 0-1.665-1.665c-.815-.415-1.882-.415-4.015-.415H6.57c-2.133 0-3.2 0-4.015.415A3.81 3.81 0 0 0 .891 2.682Zm12.675 7.054L7.856 6.38c-.32-.188-.713.053-.713.435v6.62c0 .378.39.619.708.437l5.71-3.265a.51.51 0 0 0 .005-.872Z" fill="#fff"/></svg>